<?xml version="1.0" encoding="UTF-8"?>
<svg xmlns="http://www.w3.org/2000/svg" width="16" height="16" viewBox="0 0 16 16">
  <g fill="currentColor">
    <path d="M8 1.75c.24 0 .46.14.56.36l1.08 2.34c.06.14.17.25.31.31l2.34 1.08a.62.62 0 0 1 0 1.12L9.95 8.04a.7.7 0 0 0-.31.31l-1.08 2.34a.62.62 0 0 1-1.12 0L6.36 8.35a.7.7 0 0 0-.31-.31L3.71 6.96a.62.62 0 0 1 0-1.12l2.34-1.08a.7.7 0 0 0 .31-.31l1.08-2.34c.1-.22.32-.36.56-.36z"/>
    <path d="M3.25 9.5c.2 0 .38.12.46.3l.48 1.02.01.01 1 .46a.5.5 0 0 1 0 .92l-1 .46-.01.01-.48 1.02a.5.5 0 0 1-.92 0l-.48-1.02-.01-.01-1-.46a.5.5 0 0 1 0-.92l1-.46.01-.01.48-1.02c.08-.18.26-.3.46-.3z"/>
    <path d="M12.5 10.25c.19 0 .36.11.44.28l.35.74h.01l.72.34a.48.48 0 0 1 0 .88l-.72.34h-.01l-.35.74a.48.48 0 0 1-.88 0l-.35-.74h-.01l-.72-.34a.48.48 0 0 1 0-.88l.72-.34h.01l.35-.74c.08-.17.25-.28.44-.28z"/>
  </g>
</svg>
